<svg xmlns="http://www.w3.org/2000/svg" width="165" height="90" viewBox="0 0 165 90">
  <defs>
    <linearGradient id="a" x1="0%" x2="221.826%" y1="100%" y2="0%">
      <stop offset="0%" stop-color="#F50001"/>
      <stop offset="49.411%" stop-color="#D7005A"/>
      <stop offset="100%" stop-color="#B900B4"/>
    </linearGradient>
    <linearGradient id="b" x1="-17.664%" x2="100%" y1="58.286%" y2="43.756%">
      <stop offset="0%" stop-color="#F50001"/>
      <stop offset="49.411%" stop-color="#D7005A"/>
      <stop offset="100%" stop-color="#B900B4"/>
    </linearGradient>
  </defs>
  <g fill="none" transform="translate(11 11)">
    <path fill="url(#a)" d="M5,4 L9,4 L9,5 L5,5 L5,9 L4,9 L4,5 L0,5 L0,4 L4,4 L4,0 L5,0 L5,4 Z M64,4 L68,4 L68,5 L64,5 L64,9 L63,9 L63,5 L59,5 L59,4 L63,4 L63,0 L64,0 L64,4 Z M5,63 L9,63 L9,64 L5,64 L5,68 L4,68 L4,64 L0,64 L0,63 L4,63 L4,59 L5,59 L5,63 Z M64,63 L68,63 L68,64 L64,64 L64,68 L63,68 L63,64 L59,64 L59,63 L63,63 L63,59 L64,59 L64,63 Z" opacity=".3"/>
    <path fill="url(#b)" d="M25.34375,49 L25.34375,23.875 L32.1875,23.875 L32.1875,49 L25.34375,49 Z M28.765625,21.109375 C26.75,21.109375 25.109375,19.5625 25.109375,17.5703125 C25.109375,15.53125 26.75,14.03125 28.765625,14.03125 C30.78125,14.03125 32.421875,15.53125 32.421875,17.5703125 C32.421875,19.5625 30.78125,21.109375 28.765625,21.109375 Z M37.734375,49 L37.734375,23.875 L44.34375,23.875 L44.34375,28.3984375 L44.484375,28.3984375 C45.9140625,25.1875 48.46875,23.5 52.3359375,23.5 C57.9140625,23.5 61.0546875,27.015625 61.0546875,32.8984375 L61.0546875,49 L54.2109375,49 L54.2109375,34.328125 C54.2109375,31.046875 52.6875,29.171875 49.5703125,29.171875 C46.4765625,29.171875 44.578125,31.421875 44.578125,34.703125 L44.578125,49 L37.734375,49 Z M77.9921875,43.5625 C81.4140625,43.5625 83.59375,40.84375 83.59375,36.390625 C83.59375,31.9609375 81.4140625,29.078125 77.9921875,29.078125 C74.6171875,29.078125 72.484375,31.9140625 72.484375,36.390625 C72.484375,40.890625 74.59375,43.5625 77.9921875,43.5625 Z M77.875,58.46875 C71.265625,58.46875 66.7890625,55.2578125 66.25,50.78125 L72.953125,50.78125 C73.4921875,52.515625 75.4609375,53.7109375 78.0625,53.7109375 C81.6015625,53.7109375 83.5703125,51.7421875 83.5703125,48.8359375 L83.5703125,44.4296875 L83.4296875,44.4296875 C82.2578125,47.1015625 79.3046875,48.8359375 75.671875,48.8359375 C69.5546875,48.8359375 65.4765625,44.1015625 65.4765625,36.34375 C65.4765625,28.46875 69.4375,23.5703125 75.7890625,23.5703125 C79.3984375,23.5703125 82.234375,25.3984375 83.546875,28.1875 L83.6640625,28.1875 L83.6640625,23.875 L90.4140625,23.875 L90.4140625,48.6484375 C90.4140625,54.6484375 85.3984375,58.46875 77.875,58.46875 Z M95.8671875,49 L95.8671875,23.875 L102.476562,23.875 L102.476562,28.3984375 L102.617188,28.3984375 C103.484375,25.28125 105.640625,23.5703125 108.59375,23.5703125 C109.390625,23.5703125 110.046875,23.6640625 110.539062,23.828125 L110.539062,29.8515625 C109.976562,29.6171875 109.039062,29.453125 108.054688,29.453125 C104.679688,29.453125 102.710938,31.515625 102.710938,35.0546875 L102.710938,49 L95.8671875,49 Z M114.445312,49 L114.445312,23.875 L121.289062,23.875 L121.289062,49 L114.445312,49 Z M117.867188,21.109375 C115.851562,21.109375 114.210938,19.5625 114.210938,17.5703125 C114.210938,15.53125 115.851562,14.03125 117.867188,14.03125 C119.882812,14.03125 121.523438,15.53125 121.523438,17.5703125 C121.523438,19.5625 119.882812,21.109375 117.867188,21.109375 Z M136.164062,49.3046875 C129.929688,49.3046875 125.921875,44.3359375 125.921875,36.390625 C125.921875,28.515625 129.953125,23.5703125 136.210938,23.5703125 C139.84375,23.5703125 142.632812,25.3984375 143.875,28.1875 L144.015625,28.1875 L144.015625,15.1796875 L150.859375,15.1796875 L150.859375,49 L144.109375,49 L144.109375,44.6875 L143.992188,44.6875 C142.773438,47.453125 139.867188,49.3046875 136.164062,49.3046875 Z M138.484375,29.078125 C135.085938,29.078125 132.929688,31.9375 132.929688,36.4375 C132.929688,40.9609375 135.085938,43.796875 138.484375,43.796875 C141.882812,43.796875 144.0625,40.9375 144.0625,36.4375 C144.0625,31.9609375 141.882812,29.078125 138.484375,29.078125 Z"/>
  </g>
</svg>
